<?xml version="1.0" standalone="no"?>
<!DOCTYPE svg PUBLIC "-//W3C//DTD SVG 20010904//EN"
 "http://www.w3.org/TR/2001/REC-SVG-20010904/DTD/svg10.dtd">
<svg version="1.0" xmlns="http://www.w3.org/2000/svg"
 width="300.000000pt" height="275.000000pt" viewBox="0 0 300.000000 275.000000"
 preserveAspectRatio="xMidYMid meet">
<metadata>
Created by potrace 1.10, written by Peter Selinger 2001-2011
</metadata>
<g transform="translate(0.000000,275.000000) scale(0.100000,-0.100000)"
fill="#fff" stroke="none">
<path d="M1461 2441 c-32 -32 -26 -48 27 -75 44 -23 40 -52 -6 -48 -23 1 -32
-2 -32 -13 0 -10 10 -15 31 -15 78 0 96 56 29 90 -51 26 -53 50 -4 50 24 0 34
4 32 13 -8 21 -55 20 -77 -2z"/>
<path d="M2012 2266 c-55 -85 -63 -106 -42 -106 4 0 21 23 39 51 27 43 35 50
58 47 40 -4 41 -38 3 -94 -22 -31 -29 -49 -22 -56 12 -12 82 91 82 121 0 24
-31 51 -59 51 l-23 0 25 34 c24 30 26 46 6 46 -3 0 -34 -42 -67 -94z"/>
<path d="M896 2259 c-30 -23 -33 -56 -11 -98 16 -32 33 -41 75 -41 34 0 87 41
76 59 -6 9 -15 5 -33 -14 -27 -27 -48 -31 -73 -15 -16 11 -17 10 45 49 l38 24
-32 29 c-37 33 -50 35 -85 7z m70 -20 c6 -10 -41 -58 -57 -59 -13 0 -19 32 -9
51 12 21 54 26 66 8z"/>
<path d="M2390 1792 c-62 -31 -77 -64 -41 -96 11 -10 17 -24 14 -32 -7 -20 12
-17 89 14 46 19 65 31 59 40 -5 9 -20 7 -60 -10 -59 -25 -86 -18 -86 22 0 19
10 28 55 46 55 22 77 44 43 44 -10 0 -43 -13 -73 -28z"/>
<path d="M530 1795 c0 -8 10 -31 23 -51 19 -30 26 -34 52 -30 48 7 85 24 85
40 0 12 -9 11 -50 -5 l-50 -19 -22 40 c-24 41 -38 51 -38 25z"/>
<path d="M1369 1747 c-99 -41 -156 -94 -206 -190 -25 -47 -28 -62 -28 -157 0
-93 3 -111 27 -162 31 -67 101 -139 167 -173 74 -37 149 -46 356 -43 l190 3
-1 225 c0 209 -2 229 -23 283 -32 81 -113 166 -193 203 -89 40 -208 45 -289
11z m277 -42 c67 -33 126 -90 161 -157 28 -53 28 -55 31 -270 l3 -218 -205 0
c-247 0 -288 10 -371 94 -77 78 -100 132 -100 241 0 78 4 97 27 146 46 93 134
165 232 190 56 15 165 2 222 -26z"/>
<path d="M1460 1625 c-5 -14 -14 -25 -20 -25 -17 0 -50 -63 -50 -97 0 -51 16
-79 76 -137 56 -55 67 -87 31 -94 -14 -3 -17 4 -17 32 0 36 0 36 -45 36 l-45
0 0 -40 c0 -49 22 -96 50 -105 11 -3 20 -15 20 -26 0 -16 7 -19 40 -19 24 0
40 5 40 12 0 6 16 26 35 44 32 29 35 37 35 85 0 62 -16 92 -78 145 -32 27 -42
43 -42 66 0 37 24 33 28 -5 3 -25 7 -27 48 -27 l44 0 0 41 c0 33 -6 47 -34 75
-19 19 -36 41 -40 49 -3 9 -18 15 -36 15 -23 0 -33 -6 -40 -25z m54 -30 c3 -8
12 -15 20 -15 18 0 46 -38 46 -62 0 -27 -27 -22 -34 7 -7 29 -49 44 -71 25 -9
-7 -15 -29 -15 -51 0 -34 7 -46 49 -87 57 -55 71 -79 71 -122 0 -30 -37 -80
-60 -80 -5 0 -10 -7 -10 -15 0 -8 -4 -15 -10 -15 -5 0 -10 7 -10 15 0 8 -5 15
-10 15 -21 0 -60 49 -60 75 0 36 24 31 35 -7 8 -27 16 -34 42 -36 27 -3 35 1
44 22 17 37 3 74 -48 119 -46 42 -73 89 -73 127 0 19 65 98 81 99 4 1 9 -6 13
-14z"/>
<path d="M442 1730 c2 -8 49 -29 103 -47 112 -37 115 -38 115 -20 0 6 -41 25
-93 41 -132 41 -130 41 -125 26z"/>
<path d="M504 1480 c-46 -18 -67 -77 -44 -121 15 -28 65 -51 95 -43 35 9 65
50 65 89 0 54 -66 96 -116 75z m70 -62 c14 -23 -3 -52 -33 -56 -42 -6 -67 38
-39 66 17 17 58 11 72 -10z"/>
<path d="M2444 1480 c-54 -22 -69 -91 -30 -136 50 -59 146 -22 146 56 0 59
-63 102 -116 80z m70 -62 c14 -23 -3 -52 -33 -56 -42 -6 -67 38 -39 66 17 17
58 11 72 -10z"/>
<path d="M593 1131 c-78 -28 -100 -40 -94 -50 5 -8 14 -10 22 -5 7 4 55 21
106 38 51 17 93 36 93 41 2 18 -24 14 -127 -24z"/>
<path d="M2354 1148 c-8 -13 0 -20 59 -43 46 -19 52 -25 55 -53 4 -44 -16 -50
-80 -23 -56 23 -82 27 -76 10 6 -17 120 -60 144 -55 21 6 52 61 41 73 -4 3 1
12 11 19 21 15 24 13 -71 51 -44 18 -80 27 -83 21z"/>
<path d="M556 1050 c-25 -38 -34 -70 -18 -70 4 0 19 21 34 45 l27 45 47 -20
c49 -21 68 -19 43 4 -14 14 -73 36 -94 36 -7 0 -24 -18 -39 -40z"/>
<path d="M1916 691 c-8 -13 114 -201 131 -201 19 0 17 6 -18 56 -38 56 -37 97
2 102 22 3 31 -5 60 -50 18 -29 34 -55 36 -57 2 -3 8 0 14 6 16 16 -65 133
-92 133 -29 0 -59 -18 -59 -35 0 -27 -20 -16 -37 20 -17 35 -27 43 -37 26z"/>
<path d="M899 659 c-39 -41 -39 -86 -1 -122 27 -26 52 -34 65 -21 4 4 -8 14
-25 23 -34 17 -51 50 -38 71 6 10 19 4 53 -24 l44 -36 17 24 c22 35 20 69 -7
94 -34 32 -73 28 -108 -9z m99 -36 c2 -18 0 -33 -3 -33 -5 0 -43 23 -74 46
-12 10 16 25 42 22 28 -3 32 -7 35 -35z"/>
<path d="M1456 494 c-24 -24 -16 -45 27 -73 20 -13 37 -30 37 -38 0 -20 -28
-27 -56 -14 -22 10 -25 9 -22 -6 2 -13 14 -19 41 -21 77 -6 93 51 26 93 -48
31 -46 51 5 48 26 -2 36 1 33 10 -6 19 -72 21 -91 1z"/>
</g>
</svg>
