 <svg  version="1.0" xmlns="http://www.w3.org/2000/svg"  width="659.000000pt" height="455.000000pt" preserveAspectRatio="xMidYMid meet">  <g transform="translate(0.000000,455.000000) scale(0.100000,-0.100000)" fill="#4f4a4a" stroke="none"> <path d="M0 2995 l0 -1555 2250 0 2250 0 0 1555 0 1555 -2250 0 -2250 0 0 -1555z m1939 798 l44 -182 30 16 c40 20 133 28 181 14 31 -8 43 -8 55 3 57 48 188 56 265 16 56 -29 102 -80 121 -136 l13 -39 61 -3 61 -3 0 -47 c0 -199 -152 -401 -355 -473 -172 -61 -382 -19 -521 104 -97 85 -174 245 -174 361 l0 56 75 0 c41 0 75 2 75 4 0 3 -34 77 -75 165 -41 89 -75 163 -75 166 0 2 9 9 20 15 21 11 18 17 132 -232 l31 -67 20 25 19 25 -46 188 c-25 103 -46 193 -46 200 0 7 9 11 22 9 20 -3 27 -21 67 -185z m-289 -678 l0 -35 -565 0 -565 0 0 35 0 35 565 0 565 0 0 -35z m2320 0 l0 -35 -565 0 -565 0 0 35 0 35 565 0 565 0 0 -35z m-2320 -140 l0 -35 -565 0 -565 0 0 35 0 35 565 0 565 0 0 -35z m2320 0 l0 -35 -565 0 -565 0 0 35 0 35 565 0 565 0 0 -35z m-1760 -231 c39 -8 72 -19 75 -24 7 -11 -11 -100 -23 -112 -6 -6 -24 0 -53 19 -37 24 -52 28 -117 28 -71 0 -75 -1 -103 -33 -33 -37 -37 -76 -13 -110 9 -13 67 -49 130 -80 125 -61 178 -106 195 -163 14 -46 5 -114 -21 -157 -25 -41 -92 -89 -144 -103 -54 -15 -187 -6 -253 16 l-53 18 0 57 c0 78 12 86 70 46 96 -66 202 -72 260 -15 23 23 30 40 30 69 0 50 -32 77 -167 142 -64 30 -113 61 -132 83 -100 114 -35 277 127 321 64 17 111 17 192 -2z m-1580 -169 l0 -175 138 151 c75 83 144 162 152 175 13 22 22 24 82 24 38 0 68 -3 68 -6 0 -3 -64 -76 -143 -162 -79 -86 -147 -163 -151 -170 -11 -18 60 -105 232 -283 45 -47 82 -92 82 -101 0 -17 -39 -28 -95 -28 -29 0 -43 12 -137 123 -57 67 -131 155 -164 196 l-59 74 -5 -194 -5 -194 -50 0 -50 0 -3 373 -2 372 55 0 55 0 0 -175z m1071 171 c2 -3 3 -25 1 -50 l-4 -46 -169 0 -169 0 0 -104 0 -103 57 -6 c32 -3 92 -3 135 0 88 7 94 2 81 -62 l-9 -38 -131 2 -131 2 -4 -48 c-2 -26 -2 -81 0 -122 l5 -73 171 3 170 4 -3 -45 c-1 -25 -6 -48 -10 -53 -4 -4 -106 -6 -227 -5 l-219 3 -3 373 -2 372 228 0 c126 0 231 -2 233 -4z m929 -156 l0 -160 195 0 195 0 0 160 0 160 60 0 59 0 -3 -372 -4 -373 -54 0 -53 0 -3 163 -2 162 -195 0 -195 0 -2 -162 -3 -163 -53 0 -53 0 -3 373 -3 372 59 0 58 0 0 -160z m858 -107 c-3 -255 -2 -270 17 -303 33 -55 77 -75 165 -75 88 0 132 20 165 75 19 33 20 49 18 303 l-2 267 59 0 60 0 0 -249 c0 -136 -5 -273 -10 -302 -14 -76 -54 -128 -124 -163 -49 -26 -72 -31 -151 -34 -116 -5 -180 14 -242 71 -68 62 -73 93 -73 409 l0 268 61 0 61 0 -4 -267z"/> <path d="M2328 3630 c-49 -15 -51 -20 -20 -54 16 -17 37 -46 46 -63 l17 -33 114 0 114 0 -10 32 c-26 92 -154 150 -261 118z"/> <path d="M2028 3581 c-40 -20 -87 -68 -88 -88 0 -10 43 -13 185 -13 145 0 185 3 185 13 0 17 -68 80 -103 95 -42 18 -136 14 -179 -7z"/> <path d="M1770 3402 c0 -87 69 -223 152 -297 157 -141 377 -164 565 -59 124 69 233 236 233 357 l0 27 -475 0 -475 0 0 -28z"/> </g> </svg> 